<svg id="Layer_1" data-name="Layer 1" xmlns="http://www.w3.org/2000/svg" viewBox="0 0 3994 1636"><path id="path" d="M0,1470V140c4.80237-1.26956,9.16965.31863,13.57269,1.95845q51.91706,19.33545,103.85914,38.60368c10.26459,3.80951,20.5532,7.55423,30.40373,11.1718,9.5951-3.73849,18.75387-6.67727,27.94141-10.74634.24095-6.909.10467-13.54116.127-20.1661.02248-6.66565.00494-13.33142.00494-19.99715V121.827c0-6.66572-.09392-13.33314.02653-19.99668.11953-6.61225-.5758-13.2675.56387-19.86458,2.90618-2.15457,6.10479-3.08436,9.202-4.25321q38.75609-14.626,77.5006-29.28262c22.42-8.4333,44.901-16.705,67.287-25.2269a14.92365,14.92365,0,0,1,11.52136-.09667c16.12336,6.27665,32.351,12.28548,48.54493,18.38028q31.75011,11.94959,63.44846,23.85753c2.04938-.65711,3.97286-1.18129,5.82926-1.883,25.8299-9.7641,51.71754-19.38165,77.42421-29.46095a21.66466,21.66466,0,0,1,17.23508.103c16.36657,6.55428,32.93249,12.61124,49.43216,18.83155q48.09969,18.13342,96.20732,36.24576c1.82227.68748,3.56157,1.59517,5.48035,2.46414.272,3.86367.52555,7.46392.77774,11.04537,3.67785,2.92264,7.95476,3.64446,12.11387,5.09876a29.18783,29.18783,0,0,1,2.98282-2.82453c7.26522-5.14782,15.21724-8.20173,24.27258-7.27048,7.66632.78839,12.71952,6.54047,12.26613,14.1786-.18911,3.18626-1.2523,6.32059-1.91475,9.46288,6.60046,3.84,25.806,11.22118,36.04409,13.86443,3.46243-1.26738,6.88449-2.56627,10.33814-3.77445,7.10789-2.48651,13.82438-6.28876,22.14016-5.971.09309-3.11049.234-5.72587.23914-8.34151.02477-12.66483-.01885-25.32988.04825-37.9944a50.05442,50.05442,0,0,1,.75884-5.99807c4.86768-1.88021,9.48811-3.70172,14.13465-5.4537q45.765-17.25525,91.53918-34.4859c15.87889-5.98191,31.79243-11.87476,47.60854-18.01844,3.99849-1.55318,7.66237-1.85717,11.5364.01811,1.48839.72051,3.12844,1.12232,4.68449,1.70891Q1023.20595,27.45291,1051.226,38.026q43.44583,16.34082,86.89874,32.66275c1.85564.69889,3.98934,1.28528,5.31168,2.60705,1.46142,1.46081,2.13711,3.70869,3.16492,5.63247,16.99027-5.99847,33.64184-11.79832,50.223-17.79312a14.2398,14.2398,0,0,1,10.59565-.09141c27.36081,10.42772,54.78129,20.69868,82.18736,31.0074,12.7668,4.8022,25.57106,9.507,38.29467,14.42086,2.95567,1.14143,5.56777,1.50534,8.621.268,7.3979-2.99789,14.91709-5.69619,22.38954-8.50973,1.57-.59115,3.3217-1.166,3.72446-2.96491.70838-3.16343,3.2807-4.022,5.72723-4.95689,10.25658-3.919,20.55306-7.73377,30.82844-11.60371q57.91563-21.8124,115.8292-43.63046c2.78413-1.04824,5.59693-2.02055,8.40644-3.03184,16.09033,6.02817,31.978,11.96128,47.85177,17.93167,28.34079,10.65951,56.709,21.24777,84.97685,32.09774,5.28251,2.02754,10.15812,2.83179,15.31375.12939,1.16592-.61115,2.55829-.77911,3.75446-1.34552a12.73564,12.73564,0,0,1,11.54391.24225c1.19593.57451,2.48484.95566,3.73092,1.42559q40.1622,15.14614,80.324,30.29316c19.61249,7.39872,39.2029,14.85713,58.85151,22.15855,3.67809,1.36675,7.21075,3.647,11.45825,2.85941.0837,7.8787.1674,15.75741.25,23.53418,4.17125,3.04579,8.796,3.89488,12.94432,5.77749,1.496.6789,3.13613,1.02474,4.59865-.28723a40.54776,40.54776,0,0,0,.08565-22.66736c-5.40744.86957-9.94985-1.92471-14.59462-4.44-1.14786-.62158-2.35978-1.12493-3.54217-1.68263-1.399-1.82152-2.78047-3.6568-4.2009-5.46132a26.32961,26.32961,0,0,1-4.096-7.89995c-3.3084-9.55137,1.63993-26.07577,13.05011-32.99508,14.79093-8.96943,30.27646-1.54007,36.50174,10.51307,4.07206,7.8836,4.25653,16.203,2.29011,24.32883-1.6664,6.88571-5.70405,12.74231-12.901,15.55751a31.71254,31.71254,0,0,0-4.40087,2.63475c.67386,8.82422-.84943,17.394.28733,26.04822,8.2427,4.383,16.7759,7.21777,25.08558,10.56606a10.80779,10.80779,0,0,0,1.94861.37747,2.38019,2.38019,0,0,0,2.76729-2.12171c.14239-3.32377.165-6.65257.2971-9.97691a57.11,57.11,0,0,1,.47632-6.95279c.63908-3.8994,3.43615-5.67133,7.26431-4.76862a25.53991,25.53991,0,0,1,3.76276,1.2813c8.93193,3.6519,17.86837,7.29379,26.76492,11.03053a46.82981,46.82981,0,0,1,4.922,2.74657c1.73253,6.86263-.36029,13.622,1.45557,20.0818,3.13918-.34649,5.827-.77156,6.8729-3.75175,1.8166-5.17615,6.12694-6.31777,10.44314-5.254,4.22579,1.04146,7.76833.28659,11.49351-1.16043,2.79133-1.08434,5.58961-2.15216,8.40143-3.18231,24.0568-8.81421,48.15216-17.52489,72.1482-26.50147,4.98237-1.86384,9.45572-2.08359,14.44589-.05881,9.55381,3.87629,19.3126,7.24358,28.964,10.88143,17.43707,6.57245,34.9127,13.04825,52.25045,19.87456,4.98627,1.96324,9.44669,2.57693,14.28069-.15168a47.31641,47.31641,0,0,1,8.32249-3.34509c3.59391-1.20061,6.72735.95285,7.049,4.77858.27453,3.26419.36945,6.54346.54173,9.77565,5.73663,3.001,11.4713,4.66716,17.12179,6.54645q7.54055-2.51776,15.0801-5.03813c.31527-.10546.6098-.273.92654-.37163,2.95872-.92177,5.40183-2.396,6.80616-5.38448,1.06465-2.26556,3.27009-3.27467,5.56264-3.8874,1.89651-.507,3.85769-.77306,5.5624-1.102,3.46726-4.36647,4.19029-9.11725,4.173-14.2585q-.15008-44.49609-.03538-88.993c.01635-12.10517-1.20887-10.49316,10.208-14.80295q50.90236-19.21565,101.81035-38.41629c14.32364-5.39631,28.71218-10.62291,42.98507-16.14937a14.8885,14.8885,0,0,1,11.53426.13951c16.75577,6.49158,33.61354,12.719,50.43226,19.04771q30.34077,11.41678,60.733,22.86131c4.19687-1.4754,8.29492-2.84656,12.34245-4.35308,8.73171-3.25012,17.40828-6.65145,26.16171-9.84126,12.19116-4.44245,8.58481-4.66953,21.77986.28523Q2621.584,60.3721,2672.4745,79.61934c14.32266,5.40063,28.6319,10.83728,42.976,16.17981,2.49191.9281,3.80522,2.43416,3.8938,5.11208q.31406,9.48231.74718,18.96053c.10225,2.28448.3387,4.563.54319,7.22773,21.02975,8.66758,42.234,16.41827,63.14172,24.68767,1.845-.68461,3.39845-1.25033,4.9443-1.83622,15.55642-5.89692,31.13553-11.736,46.64876-17.74475a11.82715,11.82715,0,0,1,9.61457.18825c2.26327,1.01451,3.85476,2.45605,3.83134,5.24283-.05613,6.66545-.02636,13.33212.02708,19.99783.04271,5.33067.1203,10.66264.32918,15.98825.0244.62451.98169,1.21242,1.88138,2.249-.5688-7.89493-.642-8.62178,2.77962-13.60225a13.92015,13.92015,0,0,0,2.49045-6.31223,28.83408,28.83408,0,0,1,1.75718-5.68856c1.90969-5.29938,5.58558-8.152,11.04427-8.25762a39.35179,39.35179,0,0,1,6.88108.79425c1.21936.195,2.40578,1.21146,3.97018-.52849.05246-2.84284.16178-6.1445.16544-9.44627.01855-16.99868-.00951-33.99743.0327-50.996.00561-2.26675-.53269-4.70761,1.5339-6.8495.64079-.30815,1.501-.80519,2.41822-1.151q74.72638-28.17078,149.42713-56.40968c4.72981-1.79806,8.94279-2.12165,13.40369.1476a27.54891,27.54891,0,0,0,2.8272.98146q71.93028,27.09144,143.84862,54.21469c2.14419.80921,4.16613,1.94166,5.95795,2.78793,1.57563,3.62436.98291,6.9992.988,10.28859q.06918,44.4965.04173,88.99314c.00268,3.27742.20912,6.55466.34089,10.4185,12.15383-4.58209,23.64-8.95994,35.16428-13.23393,4.70931-1.7464,9.504-3.26468,11.91444-8.27677,6.557-5.54872,13.58475-9.77844,22.621-6.87576a9.36645,9.36645,0,0,0,6.6966-.479q36.84654-14.03382,73.74042-27.943c42.31816-16.03823,84.59313-32.19149,126.96523-48.08552,15.35-5.75788,31.20166-9.01467,47.78784-8.43169a130.99525,130.99525,0,0,1,41.89552,8.29418q68.66021,25.86231,137.25012,51.91314,49.48914,18.71043,99.00779,37.34267c2.16054.81349,4.39844,1.42172,6.61486,2.13019,7.374-9.79427,17.46537-12.74544,29.44521-11.70546,1.07466-1.31372,2.182-2.55667,3.16663-3.89037,3.74373-5.07142,8.87837-6.79831,14.92148-6.12559,3.62441.40341,7.2127,1.12077,10.82686,1.6269,5.02287.70333,8.39252,3.8286,11.199,7.68508,3.07048,4.21982,3.01387,8.69906.44,13.10084a43.95111,43.95111,0,0,1-3.76764,4.79793c1.14152.41078,2.08172.71182,2.99337,1.0833,5.23371,2.1329,10.09822,1.46266,15.39244-.62627,26.92939-10.62587,53.99786-20.89863,81.03413-31.25187,4.90477-1.8781,9.88616-3.5555,14.76922-5.30312.50316.98907,1.05391,1.566,1.05416,2.14314q.30489,661.93571.51024,1323.8714a29.27971,29.27971,0,0,1-.65373,4.22412c-1.7828.83814-3.51289,1.79273-5.34156,2.488q-19.12715,7.27167-38.28869,14.452-61.664,23.192-123.33057,46.37817-72.39588,27.2655-144.77394,54.57813-26.6223,10.02429-53.30461,19.89062c-20.75889,7.64758-42.28815,8.35974-64.03947,6.82935-.99291-.06983-1.97752-.27857-2.96262-.44251a199.27015,199.27015,0,0,1-38.32359-10.8612c-41.35209-15.77161-82.78252-31.33851-124.178-46.99573q-57.42389-21.71961-114.83873-43.4635-54.14684-20.5016-108.28977-41.01416c-29.87445-11.304-59.73205-22.65381-89.6492-33.84375-18.64277-6.97278-37.787-9.99231-57.76844-7.54187a123.93929,123.93929,0,0,0-28.14923,6.3313c-21.22131,7.85034-42.36892,15.90051-63.53752,23.89392q-70.51377,26.62663-141.018,53.27758-64.43258,24.345-128.86442,48.69031c-35.48541,13.40405-71.00327,26.72315-106.4489,40.23108-17.17328,6.54456-34.49,11.83252-53.11012,12.74365a177.13762,177.13762,0,0,1-32.74239-1.88806c-9.9418-1.35266-19.41631-4.51941-28.77637-8.04443q-42.96908-16.18232-85.95183-32.32678-64.934-24.42243-129.86441-48.85364-53.71236-20.23059-107.40179-40.52161c-21.48094-8.10535-42.89331-16.40015-64.46552-24.25537-17.68658-6.44067-35.86546-9.42395-54.84912-7.4458a135.85513,135.85513,0,0,0-33.8977,7.80457q-61.6956,23.11907-123.43843,46.1123-60.77358,22.72851-121.52447,45.51855c-46.43781,17.36768-92.93418,34.5802-139.311,52.109-16.288,6.15625-32.77851,10.5614-50.27219,11.84742-10.447.76782-20.62481-.29883-30.79147-1.54981-11.22375-1.3811-22.05011-4.81909-32.652-8.91443-21.10638-8.15332-42.30889-16.05774-63.46005-24.09595q-58.32247-22.16492-116.63275-44.36218-71.85415-27.30468-143.72174-54.574-31.73148-12.04359-63.47248-24.06189c-8.74636-3.33252-17.72-5.99317-26.99357-6.95252-20.76145-2.14758-41.21294-.86145-60.91987,6.91358-9.90288,3.90722-19.93393,7.4884-29.89244,11.25573q-64.89231,24.54951-129.7759,49.12183-54.15168,20.49609-108.30618,40.98438-57.41637,21.73242-114.81732,43.50561c-17.17334,6.55335-34.49957,11.84351-53.12751,12.64588a178.03219,178.03219,0,0,1-28.82065-1.29786,132.21838,132.21838,0,0,1-31.769-8.3695c-16.14469-6.22193-32.361-12.25794-48.54637-18.37415q-57.89739-21.878-115.79541-43.75464-57.44113-21.683-114.89507-43.33227-53.70047-20.28516-107.38044-40.62427a113.72572,113.72572,0,0,0-30.10706-6.6936,121.99062,121.99062,0,0,0-54.95048,7.23693c-6.84178,2.60389-13.68783,5.20411-20.59965,7.61133C4.00429,1469.86633,1.94382,1469.76562,0,1470ZM1932.53667,172.84566c-6.18086-3.91548-13.60024-5.87807-20.46777-9.03275-2.94567-1.35312-6.08668-2.28074-8.92974-3.3249-.79318.88566-1.53255,1.32129-1.58538,1.82856a103.102,103.102,0,0,0,.11749,22.23357c9.42765,3.75807,18.95181,7.19644,29.34676,10.95349-.36652-3.0191,2.65748-4.7287,1.13236-7.06639-1.77962-2.72816,1.42824-5.20746-.06381-7.54513C1930.29683,178.08813,1933.38452,175.8813,1932.53667,172.84566Zm241.74345,20.91827a74.613,74.613,0,0,0-.09028-7.73727,2.93259,2.93259,0,0,0-1.89822-1.93308,5.93479,5.93479,0,0,0-3.75886.24474c-2.42921,1.2702-5.81252,1.05578-7.44989,4.195C2164.91421,191.16818,2168.94978,192.23727,2174.28012,193.76393Z"/></svg>